<svg width="200" height="200" viewBox="0 0 200 200" fill="none" xmlns="http://www.w3.org/2000/svg">
<g clip-path="url(#clip0_235_310)">
<path d="M117.548 122.048C142.04 122.048 160.772 102.176 160.745 77.685C160.745 77.558 160.745 77.4333 160.745 77.3109C160.744 31.7566 137.962 0 100 0C62.0382 0 39.2557 31.7566 39.2557 77.3109C39.2557 77.4333 39.2557 77.558 39.2557 77.685C39.2288 102.176 57.961 122.048 82.4521 122.048H117.548Z" fill="#C64832"/>
<path d="M160.744 77.3109C160.744 31.7566 137.962 0 100 0V122.048H117.548C142.04 122.048 160.772 102.176 160.745 77.685C160.744 77.5586 160.744 77.4339 160.744 77.3109Z" fill="#B2332D"/>
<path d="M115.84 98.0054H100.808H100.106H99.8938H99.1915H84.1597C84.1597 139.69 63.7905 135.919 63.7905 135.919C63.7905 162.404 92.3969 170.805 99.1909 173.273V174.132C99.1909 174.132 99.489 174.071 99.9994 173.931C100.509 174.071 100.808 174.132 100.808 174.132V173.273C107.602 170.805 136.208 162.404 136.208 135.919C136.208 135.919 115.84 139.69 115.84 98.0054Z" fill="#F3D8B6"/>
<path d="M115.84 98.0054H100.808H100.106H100V173.931C100.51 174.071 100.809 174.132 100.809 174.132V173.273C107.603 170.805 136.209 162.404 136.209 135.919C136.209 135.919 115.84 139.69 115.84 98.0054Z" fill="#EEC8A2"/>
<path d="M135.744 64.6674C135.693 64.6641 135.64 64.6602 135.584 64.6557C135.502 64.6501 135.416 64.6434 135.322 64.6367C135.265 64.6328 135.207 64.6283 135.146 64.6238C135.045 64.6166 134.941 64.6082 134.83 64.5998C134.758 64.5942 134.686 64.5886 134.61 64.5824C134.492 64.5735 134.368 64.5634 134.24 64.5534C134.165 64.5472 134.092 64.5416 134.013 64.5355C133.867 64.5237 133.712 64.5109 133.554 64.498C133.48 64.4919 133.409 64.4863 133.333 64.4796C133.143 64.4634 132.942 64.4466 132.737 64.4287C132.686 64.4242 132.638 64.4203 132.586 64.4158C132.344 64.3946 132.091 64.3722 131.829 64.3482C131.802 64.3459 131.777 64.3437 131.75 64.3415C131.162 64.2878 130.524 64.228 129.844 64.1609C129.824 64.1592 129.803 64.1569 129.783 64.1547C129.47 64.124 129.149 64.0915 128.819 64.0574C128.751 64.0507 128.68 64.0429 128.611 64.0356C128.326 64.0065 128.036 63.9758 127.739 63.9445C127.642 63.9339 127.543 63.9232 127.445 63.9126C127.163 63.8824 126.877 63.8511 126.585 63.8187C126.481 63.8069 126.375 63.7952 126.27 63.7834C125.981 63.751 125.688 63.718 125.389 63.6834C125.269 63.6694 125.149 63.6554 125.029 63.6414C124.734 63.6068 124.435 63.5715 124.132 63.5358C124.008 63.5207 123.885 63.5061 123.76 63.491C123.446 63.453 123.127 63.4139 122.805 63.3736C122.687 63.3585 122.569 63.3445 122.45 63.3294C122.106 63.2864 121.758 63.2416 121.406 63.1958C121.304 63.1829 121.204 63.1701 121.102 63.1567C120.71 63.1052 120.312 63.0521 119.911 62.9979C119.843 62.9889 119.777 62.98 119.709 62.9705C118.269 62.7748 116.772 62.5589 115.229 62.3219C115.188 62.3157 115.147 62.309 115.107 62.3029C114.644 62.2319 114.177 62.1586 113.707 62.0831C113.603 62.0663 113.497 62.049 113.392 62.0322C112.985 61.9668 112.577 61.9003 112.165 61.8315C112.024 61.808 111.882 61.784 111.74 61.7599C111.359 61.6962 110.979 61.6313 110.595 61.5648C110.436 61.5374 110.276 61.5089 110.116 61.4809C109.745 61.4161 109.374 61.3501 109 61.2824C108.832 61.2522 108.663 61.2215 108.494 61.1902C108.122 61.122 107.75 61.0532 107.376 60.9827C107.208 60.9514 107.041 60.9196 106.872 60.8877C106.49 60.815 106.108 60.7406 105.724 60.6652C105.563 60.6333 105.402 60.602 105.24 60.5695C104.838 60.4896 104.436 60.408 104.033 60.3252C103.89 60.2961 103.747 60.2671 103.604 60.2374C103.164 60.1457 102.722 60.0523 102.28 59.9573C102.173 59.9344 102.065 59.912 101.958 59.8885C86.6361 56.5689 70.8154 51.1269 65.2129 42.3882C62.3854 61.165 65.2258 85.919 68.8825 92.6705C73.9382 102.005 85.221 114.453 100.002 114.453C114.781 114.453 126.062 102.005 131.119 92.6705C133.41 88.4407 135.382 77.1417 135.84 64.6736C135.807 64.6719 135.779 64.6697 135.744 64.6674Z" fill="#F3DBC4"/>
<path d="M135.744 64.6673C135.693 64.6639 135.64 64.66 135.584 64.6555C135.502 64.6499 135.416 64.6432 135.322 64.6365C135.265 64.6326 135.207 64.6281 135.146 64.6236C135.045 64.6164 134.941 64.608 134.83 64.5996C134.758 64.594 134.686 64.5884 134.61 64.5823C134.492 64.5733 134.368 64.5633 134.24 64.5532C134.165 64.547 134.092 64.5415 134.013 64.5353C133.867 64.5236 133.712 64.5107 133.554 64.4978C133.48 64.4917 133.409 64.4861 133.333 64.4794C133.143 64.4632 132.942 64.4464 132.737 64.4285C132.686 64.424 132.638 64.4201 132.586 64.4157C132.344 64.3944 132.091 64.372 131.829 64.348C131.802 64.3458 131.777 64.3435 131.75 64.3413C131.162 64.2876 130.524 64.2278 129.844 64.1607C129.824 64.159 129.803 64.1568 129.783 64.1545C129.47 64.1238 129.149 64.0914 128.819 64.0572C128.751 64.0505 128.68 64.0427 128.611 64.0354C128.326 64.0064 128.036 63.9756 127.739 63.9443C127.642 63.9337 127.543 63.9231 127.445 63.9124C127.163 63.8822 126.877 63.8509 126.585 63.8185C126.481 63.8068 126.375 63.795 126.27 63.7833C125.981 63.7508 125.688 63.7179 125.389 63.6832C125.269 63.6692 125.149 63.6552 125.029 63.6412C124.734 63.6066 124.435 63.5714 124.132 63.5356C124.008 63.5205 123.885 63.5059 123.76 63.4908C123.446 63.4528 123.127 63.4137 122.805 63.3734C122.687 63.3583 122.569 63.3443 122.45 63.3293C122.106 63.2862 121.758 63.2415 121.406 63.1956C121.304 63.1828 121.204 63.1699 121.102 63.1565C120.71 63.105 120.312 63.0519 119.911 62.9977C119.843 62.9887 119.777 62.9798 119.709 62.9703C118.269 62.7746 116.772 62.5588 115.229 62.3217C115.188 62.3155 115.148 62.3088 115.107 62.3027C114.644 62.2317 114.177 62.1584 113.707 62.0829C113.603 62.0662 113.497 62.0488 113.392 62.0321C112.985 61.9666 112.577 61.9001 112.165 61.8313C112.024 61.8078 111.882 61.7838 111.74 61.7598C111.359 61.696 110.979 61.6312 110.595 61.5646C110.436 61.5372 110.276 61.5087 110.116 61.4808C109.745 61.4159 109.374 61.3499 109 61.2823C108.832 61.2521 108.663 61.2213 108.494 61.19C108.122 61.1218 107.75 61.053 107.376 60.9826C107.208 60.9513 107.041 60.9194 106.872 60.8875C106.49 60.8148 106.108 60.7405 105.724 60.665C105.563 60.6331 105.402 60.6018 105.24 60.5694C104.838 60.4894 104.436 60.4078 104.033 60.325C103.89 60.296 103.747 60.2669 103.604 60.2372C103.164 60.1455 102.722 60.0522 102.28 59.9571C102.173 59.9342 102.065 59.9118 101.958 59.8883C101.306 59.7469 100.654 59.6004 100.001 59.4517V114.453H100.002C114.781 114.453 126.062 102.005 131.119 92.6709C133.41 88.4405 135.382 77.1415 135.84 64.674C135.807 64.6717 135.779 64.6695 135.744 64.6673Z" fill="#EDCEAE"/>
<path d="M144.736 180.497V199.882H55.2749L34.5869 200V176.88C34.5869 159.865 42.6273 145.031 55.6104 137.231C58.9931 135.191 62.7058 133.636 66.7092 132.646C66.9328 132.591 67.1621 132.535 67.3913 132.484C70.0696 131.864 72.8652 131.495 75.7727 131.405C75.8957 131.4 76.0243 131.4 76.1473 131.394C76.1362 131.433 76.125 131.467 76.1138 131.506C75.4708 133.754 75.1185 136.124 75.1185 138.579C75.1185 152.669 86.5081 164.092 100.559 164.092C110.909 164.092 119.805 157.897 123.78 149.001H125.435L128.963 154.76L144.736 180.497Z" fill="#DFE0F2"/>
<path d="M144.39 137.232C141.007 135.191 137.294 133.637 133.291 132.647C133.067 132.591 132.844 132.541 132.62 132.491C130.176 131.92 127.627 131.568 124.982 131.439C125.642 133.704 126 136.097 126 138.58C126 152.67 114.61 164.093 100.559 164.093C100.431 164.093 100.302 164.087 100.168 164.087C100.117 164.082 100.062 164.082 100.006 164.082V199.883H165.413V176.88C165.413 159.866 157.373 145.031 144.39 137.232Z" fill="#C6C8D7"/>
<path d="M132.704 132.496C129.891 131.83 126.939 131.461 123.869 131.394C124.496 133.603 124.786 136.259 124.786 138.545C124.786 142.073 124.06 145.495 122.623 148.705C121.789 150.572 120.727 152.334 119.452 153.95L119.413 154.005C119.245 154.212 119.078 154.419 118.893 154.637L118.854 154.688C118.323 155.303 117.753 155.912 117.149 156.499L116.981 156.656C116.802 156.823 116.623 156.991 116.444 157.148L116.299 157.276C115.963 157.567 115.611 157.863 115.248 158.149L115.018 158.328C114.851 158.456 114.677 158.585 114.515 158.702C114.403 158.786 114.291 158.864 114.18 158.943C114.012 159.06 113.844 159.172 113.682 159.284C113.553 159.368 113.43 159.446 113.302 159.53L113.246 159.563C112.994 159.725 112.743 159.876 112.485 160.033C112.329 160.122 112.167 160.217 112.005 160.307C111.854 160.391 111.703 160.469 111.563 160.547C111.39 160.637 111.216 160.726 111.026 160.821L110.942 160.866C110.836 160.916 110.724 160.972 110.618 161.023C110.327 161.162 110.025 161.302 109.729 161.431L109.377 161.571C109.159 161.66 108.941 161.749 108.711 161.833C108.583 161.884 108.449 161.934 108.32 161.979C108.085 162.063 107.845 162.141 107.604 162.219L107.297 162.32C106.961 162.426 106.626 162.521 106.29 162.61L105.972 162.689C105.714 162.75 105.457 162.812 105.189 162.868L104.848 162.94C104.54 163.002 104.233 163.058 103.936 163.103L103.746 163.136C103.383 163.192 103.014 163.237 102.661 163.276L102.337 163.304C102.052 163.332 101.767 163.354 101.482 163.371L101.146 163.388C100.783 163.404 100.414 163.421 100.05 163.416C99.9497 163.416 99.8546 163.416 99.754 163.41L99.4576 163.404C86.0887 163.114 75.2136 151.965 75.2136 138.545C75.2136 136.18 75.5491 133.821 76.22 131.539L76.1082 131.506L75.7671 131.405C72.8596 131.495 70.064 131.864 67.3857 132.484C67.0111 134.48 66.8266 136.51 66.8266 138.545C66.8266 147.301 70.1926 155.565 76.3039 161.817C79.9366 165.529 84.2984 168.278 89.0695 169.943C87.8892 170.873 86.7166 171.906 85.5676 173.046C83.9322 174.685 82.4924 176.385 81.2903 178.096C80.1122 179.762 79.0683 181.548 78.2732 183.263C77.8952 184.08 77.5709 184.858 77.307 185.578C77.0481 186.29 76.839 186.94 76.688 187.499C76.3738 188.617 76.2748 189.36 76.2704 189.391L76.0808 190.836L77.525 190.646C77.5564 190.642 78.2994 190.543 79.4076 190.231C79.9796 190.076 80.6294 189.867 81.34 189.608C82.0624 189.344 82.8407 189.019 83.6543 188.643C85.3663 187.849 87.1522 186.806 88.8168 185.628C90.5311 184.424 92.2314 182.984 93.8741 181.344C95.5118 179.693 96.9477 177.991 98.142 176.287C98.8157 175.332 99.4375 174.339 100.001 173.346C100.564 174.339 101.185 175.331 101.857 176.284C103.053 177.991 104.489 179.693 106.131 181.348C107.77 182.984 109.47 184.423 111.181 185.626C112.849 186.805 114.635 187.849 116.348 188.643C117.16 189.018 117.939 189.343 118.663 189.609C119.372 189.867 120.021 190.076 120.585 190.228C121.702 190.542 122.445 190.642 122.477 190.645L123.921 190.835L123.731 189.391C123.727 189.359 123.627 188.616 123.316 187.509C123.163 186.939 122.954 186.289 122.694 185.576C122.431 184.858 122.106 184.08 121.728 183.262C120.933 181.548 119.89 179.762 118.713 178.099C117.509 176.385 116.069 174.685 114.429 173.042C113.284 171.906 112.113 170.874 110.935 169.946C111.004 169.921 111.075 169.899 111.144 169.874C111.329 169.813 111.508 169.746 111.675 169.679C111.972 169.572 112.262 169.455 112.564 169.326L112.693 169.276C112.805 169.231 112.917 169.186 113.028 169.136C113.431 168.968 113.834 168.784 114.225 168.594C114.393 168.516 114.555 168.437 114.717 168.353L114.778 168.325C115.013 168.208 115.248 168.085 115.489 167.956C115.69 167.85 115.891 167.744 116.087 167.632C116.305 167.509 116.523 167.386 116.735 167.263C117.077 167.062 117.418 166.849 117.798 166.609C117.971 166.497 118.144 166.391 118.323 166.273C118.547 166.122 118.771 165.966 118.994 165.809C119.14 165.703 119.291 165.602 119.442 165.491C119.671 165.323 119.9 165.155 120.113 164.993C120.196 164.926 120.275 164.864 120.353 164.803L120.426 164.741C120.912 164.367 121.382 163.975 121.835 163.573L122.019 163.416C122.265 163.198 122.506 162.974 122.741 162.756L122.97 162.533C123.764 161.767 124.524 160.962 125.223 160.14L125.273 160.084C125.514 159.799 125.749 159.513 125.984 159.212L126.045 159.133C127.135 157.752 128.108 156.293 128.958 154.761C129.439 153.905 129.881 153.022 130.283 152.127C132.201 147.833 133.174 143.259 133.174 138.546C133.173 136.644 133.034 134.374 132.704 132.496Z" fill="#367992"/>
<path d="M132.704 132.496C129.891 131.83 126.939 131.461 123.869 131.394C124.496 133.603 124.786 136.259 124.786 138.545C124.786 142.073 124.06 145.495 122.623 148.705C121.789 150.572 120.727 152.334 119.452 153.95L119.413 154.005C119.245 154.212 119.078 154.419 118.893 154.637L118.854 154.688C118.323 155.303 117.753 155.912 117.149 156.499L116.981 156.656C116.802 156.823 116.623 156.991 116.444 157.148L116.299 157.276C115.963 157.567 115.611 157.863 115.248 158.149L115.018 158.328C114.851 158.456 114.677 158.585 114.515 158.702C114.403 158.786 114.291 158.864 114.18 158.943C114.012 159.06 113.844 159.172 113.682 159.284C113.553 159.368 113.43 159.446 113.302 159.53L113.246 159.563C112.994 159.725 112.743 159.876 112.485 160.033C112.329 160.122 112.167 160.217 112.005 160.307C111.854 160.391 111.703 160.469 111.563 160.547C111.39 160.637 111.216 160.726 111.026 160.821L110.942 160.866C110.836 160.916 110.724 160.972 110.618 161.023C110.327 161.162 110.025 161.302 109.729 161.431L109.377 161.571C109.159 161.66 108.941 161.749 108.711 161.833C108.583 161.884 108.449 161.934 108.32 161.979C108.085 162.063 107.845 162.141 107.604 162.219L107.297 162.32C106.961 162.426 106.626 162.521 106.29 162.61L105.972 162.689C105.714 162.75 105.457 162.812 105.189 162.868L104.848 162.94C104.54 163.002 104.233 163.058 103.936 163.103L103.746 163.136C103.383 163.192 103.014 163.237 102.661 163.276L102.337 163.304C102.052 163.332 101.767 163.354 101.482 163.371L101.146 163.388C100.783 163.404 100.414 163.421 100.05 163.416C100.033 163.416 100.017 163.415 100 163.415V173.345C100.563 174.338 101.184 175.33 101.856 176.283C103.053 177.989 104.489 179.692 106.13 181.347C107.769 182.983 109.469 184.422 111.18 185.625C112.848 186.804 114.635 187.848 116.347 188.642C117.16 189.017 117.938 189.342 118.663 189.608C119.372 189.865 120.021 190.075 120.584 190.227C121.702 190.541 122.445 190.64 122.476 190.644L123.92 190.834L123.731 189.39C123.726 189.358 123.627 188.615 123.316 187.508C123.162 186.938 122.953 186.288 122.693 185.575C122.43 184.857 122.106 184.079 121.727 183.26C120.932 181.547 119.89 179.761 118.713 178.098C117.508 176.384 116.068 174.684 114.428 173.041C113.283 171.905 112.113 170.873 110.934 169.945C111.004 169.92 111.074 169.898 111.144 169.873C111.328 169.812 111.507 169.744 111.675 169.677C111.971 169.571 112.262 169.454 112.564 169.325L112.692 169.275C112.804 169.23 112.916 169.185 113.028 169.135C113.43 168.967 113.833 168.783 114.224 168.593C114.392 168.514 114.554 168.436 114.716 168.352L114.778 168.324C115.013 168.207 115.248 168.084 115.488 167.955C115.689 167.849 115.891 167.743 116.086 167.631C116.304 167.508 116.522 167.385 116.735 167.262C117.076 167.061 117.417 166.848 117.797 166.608C117.971 166.496 118.144 166.39 118.323 166.272C118.546 166.121 118.77 165.965 118.994 165.808C119.139 165.702 119.29 165.601 119.441 165.489C119.67 165.322 119.9 165.154 120.112 164.992C120.196 164.925 120.274 164.863 120.352 164.802L120.425 164.74C120.912 164.366 121.381 163.974 121.834 163.572L122.019 163.415C122.265 163.197 122.505 162.973 122.74 162.755L122.969 162.532C123.763 161.766 124.524 160.96 125.223 160.139L125.273 160.083C125.513 159.797 125.748 159.512 125.983 159.21L126.044 159.132C127.135 157.751 128.108 156.292 128.958 154.76C129.438 153.904 129.88 153.021 130.283 152.126C132.201 147.832 133.173 143.258 133.173 138.545C133.173 136.644 133.034 134.374 132.704 132.496Z" fill="#2F697E"/>
</g>
<defs>
<clipPath id="clip0_235_310">
<rect width="200" height="200" fill="white"/>
</clipPath>
</defs>
</svg>
