<svg width="25" height="25" viewBox="0 0 25 25" fill="none" xmlns="http://www.w3.org/2000/svg">
<path d="M12.5 25C19.3929 25 25 19.3929 25 12.5C25 5.60714 19.3929 0 12.5 0C5.60714 0 0 5.60714 0 12.5C0 19.3929 5.60714 25 12.5 25ZM12.5 1.75C18.4286 1.75 23.25 6.57143 23.25 12.5C23.25 18.4286 18.4286 23.25 12.5 23.25C6.57143 23.25 1.75 18.4286 1.75 12.5C1.75 6.57143 6.57143 1.75 12.5 1.75Z" fill="black"/>
<path d="M13.2551 16.7964C13.4234 16.9648 13.6479 17.0515 13.8724 17.0515C14.0969 17.0515 14.3214 16.9648 14.4898 16.7964C14.8316 16.4546 14.8316 15.8984 14.4898 15.5566L11.4285 12.4954L14.4898 9.43416C14.8316 9.09232 14.8316 8.5362 14.4898 8.19437C14.1479 7.85253 13.5918 7.85253 13.25 8.19437L9.57139 11.8729C9.40812 12.0362 9.31628 12.2607 9.31628 12.4903C9.31628 12.7199 9.40812 12.9444 9.57139 13.1076L13.2551 16.7964Z" fill="black"/>
</svg>
