<svg width="25" height="25" viewBox="0 0 25 25" fill="none" xmlns="http://www.w3.org/2000/svg">
<g clip-path="url(#clip0_244_298)">
<path d="M25 12.5C25 5.60714 19.3929 0 12.5 0C5.60714 0 0 5.60714 0 12.5C0 19.3929 5.60714 25 12.5 25C19.3929 25 25 19.3929 25 12.5ZM1.75 12.5C1.75 6.57143 6.57143 1.75 12.5 1.75C18.4286 1.75 23.25 6.57143 23.25 12.5C23.25 18.4286 18.4286 23.25 12.5 23.25C6.57143 23.25 1.75 18.4286 1.75 12.5Z" fill="black"/>
<path d="M15.4235 11.8827L11.745 8.20413C11.4031 7.86229 10.847 7.86229 10.5052 8.20413C10.1633 8.54597 10.1633 9.10209 10.5052 9.44393L13.5664 12.5052L10.5052 15.5664C10.1633 15.9082 10.1633 16.4643 10.5052 16.8062C10.6735 16.9745 10.898 17.0613 11.1225 17.0613C11.347 17.0613 11.5715 16.9745 11.7399 16.8062L15.4184 13.1276C15.7654 12.7756 15.7654 12.2245 15.4235 11.8827Z" fill="black"/>
</g>
<defs>
<clipPath id="clip0_244_298">
<rect width="25" height="25" fill="white"/>
</clipPath>
</defs>
</svg>
