<svg width="30" height="26" viewBox="0 0 30 26" fill="none" xmlns="http://www.w3.org/2000/svg">
<path d="M0 2.69719C0 1.35901 1.08606 0.272949 2.42424 0.272949H27.5758C28.9139 0.272949 30 1.35901 30 2.69719C30 4.03537 28.9139 5.12143 27.5758 5.12143H2.42424C1.08606 5.12143 0 4.03537 0 2.69719ZM27.5758 10.576H2.42424C1.08606 10.576 0 11.662 0 13.0002C0 14.3384 1.08606 15.4245 2.42424 15.4245H27.5758C28.9139 15.4245 30 14.3384 30 13.0002C30 11.662 28.9151 10.576 27.5758 10.576ZM27.5758 20.879H2.42424C1.08606 20.879 0 21.9651 0 23.3033C0 24.6414 1.08606 25.7275 2.42424 25.7275H27.5758C28.9139 25.7275 30 24.6414 30 23.3033C30 21.9651 28.9151 20.879 27.5758 20.879Z" fill="black"/>
</svg>
