<svg width="35" height="35" viewBox="0 0 35 35" fill="none" xmlns="http://www.w3.org/2000/svg">
<g clip-path="url(#clip0_235_243)">
<path d="M17.5 0.857422C7.8505 0.857422 0 7.28726 0 15.1906C0 19.8478 2.70662 24.1455 7.28603 26.8359C6.65068 29.8061 5.22681 31.8904 5.21122 31.9129L3.65459 34.1426L6.35446 33.7966C6.66547 33.7566 13.9087 32.7966 19.0714 29.4663C23.311 29.1577 27.2487 27.6024 30.1906 25.0682C33.292 22.3965 35 18.8886 35 15.1908C35 7.28726 27.1495 0.857422 17.5 0.857422ZM18.606 27.0807L18.2766 27.0995L18.0028 27.2835C15.0006 29.3003 10.9814 30.4191 8.45306 30.9662C8.98345 29.7805 9.54085 28.2043 9.81907 26.3846L9.9491 25.534L9.18709 25.1346C4.94409 22.9111 2.41089 19.194 2.41089 15.1906C2.41089 8.61679 9.17986 3.26831 17.5 3.26831C25.8201 3.26831 32.5891 8.61663 32.5891 15.1906C32.5891 21.4078 26.447 26.6305 18.606 27.0807Z" fill="black"/>
</g>
<defs>
<clipPath id="clip0_235_243">
<rect width="35" height="35" fill="white"/>
</clipPath>
</defs>
</svg>
