<svg width="30" height="28" viewBox="0 0 30 28" fill="none" xmlns="http://www.w3.org/2000/svg">
<path d="M24.3762 11.3733C24.3762 13.8831 23.5031 16.2015 22.0323 18.0825L29.4507 25.0104C30.1831 25.6939 30.1831 26.8039 29.4507 27.4874C28.7182 28.1709 27.5287 28.1709 26.7962 27.4874L19.3779 20.5595C17.3622 21.9374 14.8777 22.7467 12.1881 22.7467C5.45534 22.7467 0 17.656 0 11.3733C0 5.09066 5.45534 0 12.1881 0C18.9208 0 24.3762 5.09066 24.3762 11.3733ZM12.1881 19.2472C13.2962 19.2472 14.3934 19.0435 15.4171 18.6478C16.4409 18.2521 17.3711 17.6721 18.1546 16.941C18.9381 16.2098 19.5597 15.3418 19.9837 14.3865C20.4078 13.4312 20.626 12.4073 20.626 11.3733C20.626 10.3393 20.4078 9.31544 19.9837 8.36014C19.5597 7.40484 18.9381 6.53684 18.1546 5.80568C17.3711 5.07453 16.4409 4.49455 15.4171 4.09885C14.3934 3.70315 13.2962 3.49949 12.1881 3.49949C11.08 3.49949 9.98278 3.70315 8.95905 4.09885C7.93531 4.49455 7.00512 5.07453 6.22159 5.80568C5.43806 6.53684 4.81653 7.40484 4.39248 8.36014C3.96844 9.31544 3.75018 10.3393 3.75018 11.3733C3.75018 12.4073 3.96844 13.4312 4.39248 14.3865C4.81653 15.3418 5.43806 16.2098 6.22159 16.941C7.00512 17.6721 7.93531 18.2521 8.95905 18.6478C9.98278 19.0435 11.08 19.2472 12.1881 19.2472Z" fill="#ABABAB"/>
</svg>
