<svg width="35" height="40" viewBox="0 0 35 40" fill="none" xmlns="http://www.w3.org/2000/svg">
<path d="M17.5 0C16.1171 0 14.9998 1.11719 14.9998 2.5V4C9.29606 5.15625 4.99875 10.2031 4.99875 16.25V18.2344C4.99875 21.7813 3.78769 25.2266 1.57654 27.9922L0.412357 29.4531C-0.0408135 30.0156 -0.12676 30.7891 0.185772 31.4375C0.498303 32.0859 1.15462 32.5 1.87344 32.5H33.1266C33.8454 32.5 34.5017 32.0859 34.8142 31.4375C35.1268 30.7891 35.0408 30.0156 34.5876 29.4531L33.4235 28C31.2123 25.2266 30.0012 21.7813 30.0012 18.2344V16.25C30.0012 10.2031 25.7039 5.15625 20.0002 4V2.5C20.0002 1.11719 18.8829 0 17.5 0ZM17.5 7.5C22.3364 7.5 26.2509 11.4141 26.2509 16.25V18.2344C26.2509 21.9766 27.3369 25.625 29.3527 28.75H5.64725C7.66308 25.625 8.74913 21.9766 8.74913 18.2344V16.25C8.74913 11.4141 12.6636 7.5 17.5 7.5ZM22.5005 35H17.5H12.4995C12.4995 36.3281 13.023 37.6016 13.9606 38.5391C14.8982 39.4766 16.1717 40 17.5 40C18.8283 40 20.1018 39.4766 21.0394 38.5391C21.977 37.6016 22.5005 36.3281 22.5005 35Z" fill="black"/>
</svg>
