<svg width="30" height="30" viewBox="0 0 30 30" fill="none" xmlns="http://www.w3.org/2000/svg">
<g clip-path="url(#clip0_244_340)">
<path d="M28.8188 9.16564C27.6779 6.4735 25.7757 4.18441 23.3821 2.56582C20.9893 0.947227 18.0992 -0.000410023 15 1.33088e-07C12.9343 -0.000117054 10.9602 0.420703 9.16576 1.18113C6.47367 2.32207 4.18453 4.2242 2.56588 6.61775C0.947285 9.01049 -0.000410023 11.9006 1.3308e-07 15C-0.000117054 17.0657 0.420762 19.0399 1.18119 20.8344C2.32207 23.5265 4.22438 25.8156 6.61787 27.4342C9.01072 29.0528 11.9008 30.0004 15 30C17.0656 30.0001 19.0398 29.5793 20.8342 28.8189C23.5263 27.678 25.8155 25.7758 27.4341 23.3822C29.0528 20.9895 30.0004 18.0993 30 15C30.0001 12.9342 29.5792 10.9601 28.8188 9.16564ZM26.9773 20.0541C25.99 22.385 24.338 24.3738 22.2619 25.7773C20.1852 27.1808 17.6904 27.9995 15.0001 28C13.206 27.9998 11.5003 27.6356 9.94605 26.9773C7.61514 25.9899 5.62629 24.338 4.22279 22.2619C2.81918 20.1853 2.00039 17.6904 1.99998 15C2.0001 13.2059 2.36438 11.5001 3.02268 9.94588C4.01004 7.61496 5.66203 5.62611 7.73807 4.22268C9.81481 2.81912 12.3096 2.00039 15 1.99998C16.7941 2.0001 18.4997 2.36432 20.054 3.02268C22.3849 4.00998 24.3738 5.66197 25.7773 7.73801C27.1808 9.81475 27.9995 12.3095 28 15.0001C27.9998 16.7941 27.6356 18.4999 26.9773 20.0541Z" fill="black"/>
<path d="M22.8278 14.0216H15.9785V7.1723C15.9785 6.63195 15.5404 6.19385 15 6.19385C14.4597 6.19385 14.0215 6.63195 14.0215 7.1723V14.0216H7.17223C6.63188 14.0216 6.19377 14.4597 6.19377 15.0001C6.19377 15.5404 6.63188 15.9785 7.17223 15.9785H14.0215V22.8279C14.0215 23.3682 14.4597 23.8063 15 23.8063C15.5404 23.8063 15.9785 23.3682 15.9785 22.8279V15.9785H22.8278C23.3681 15.9785 23.8062 15.5404 23.8062 15.0001C23.8062 14.4597 23.3682 14.0216 22.8278 14.0216Z" fill="black"/>
</g>
<defs>
<clipPath id="clip0_244_340">
<rect width="30" height="30" fill="white"/>
</clipPath>
</defs>
</svg>
